<svg xmlns="http://www.w3.org/2000/svg" viewBox="0 0 780 780"><defs><linearGradient id="a" x1=".03%" x2="54.79%" y1="50.23%" y2="50.23%"><stop offset="0%" stop-color="#F3FFD4" stop-opacity="0"/><stop offset="99.98%" stop-color="#F3FFD4"/></linearGradient><linearGradient id="b" x1="99.38%" x2="35.8%" y1="49.83%" y2="49.83%"><stop offset="0%" stop-color="#A4E000" stop-opacity="0"/><stop offset="100%" stop-color="#A4E000"/></linearGradient><linearGradient id="c" x1="100.43%" x2="48.94%" y1="50.11%" y2="50.11%"><stop offset="0%" stop-color="#516B04" stop-opacity="0"/><stop offset="100%" stop-color="#628008"/></linearGradient><linearGradient id="d" x1="99.91%" x2="41.06%" y1="50.24%" y2="50.24%"><stop offset="0%" stop-color="#A6B500" stop-opacity="0"/><stop offset="100%" stop-color="#A6B500"/></linearGradient></defs><g fill="none"><g transform="translate(15 74)"><polygon fill="#3F5400" points="374.6 437.24 530.81 437.24 374.74 164.97 374.74 0 680.41 524.87 374.6 524.87"/><polygon fill="#A4E000" points="374.6 437.24 218.66 437.24 374.47 164.97 374.47 0 68.93 525 374.74 525"/><polygon fill="url(#a)" points="0 164.31 374.6 337.73 374.6 355.81 .13 273.72"/><polygon fill="url(#b)" points="750 113.76 374.6 337.86 374.6 343.93 750 186.09"/><polygon fill="url(#c)" points="750 330.6 374.6 355.81 374.6 349.87 750 258.41"/><polygon fill="url(#d)" points="750 186.09 374.6 343.8 374.6 349.87 750 258.41"/><path fill="#F3FFD4" d="M375.46 252.16c-.01.06.02.13.1.22 6.13 7.22 15.05 17.81 26.76 31.75h-53.5a2.7 2.7 0 0 1-.7-.06c.03-.06.17-.24.41-.53 8.7-10.33 17.42-20.65 26.13-30.97.1-.1.16-.22.21-.36.18-.26.38-.28.59-.05Z"/><path fill="#3F5400" d="M374.98 417.87c.01-.06-.02-.13-.1-.21a7707.9 7707.9 0 0 1-26.76-31.76h53.5c.33 0 .56.02.7.06a3.7 3.7 0 0 1-.41.54l-26.13 30.96c-.1.1-.16.23-.22.36-.17.27-.37.28-.58.05Z"/><path fill="#A4E000" d="M375.46 252.16c.14.04.4.16.78.38a69198.7 69198.7 0 0 1 54.48 31.24l.25.12c.1.05.2.12.28.23h-28.93a7707.88 7707.88 0 0 0-26.77-31.75c-.07-.09-.1-.16-.1-.22Zm-.59.05a1.3 1.3 0 0 1-.2.36 41878.6 41878.6 0 0 0-26.14 30.97c-.24.29-.38.47-.4.53a.27.27 0 0 0-.17.07l-28.82-.01a1 1 0 0 1 .3-.22c28.93-16.58 47.3-27.12 55.1-31.61.13-.08.24-.1.33-.09Z"/><path fill="#A6B500" d="M348.12 284.07c.14.04.37.06.7.06h53.5c.03.18.05.45.05.8l-.01 100.79a.1.1 0 0 1-.1.1l-.1.02a26700.74 26700.74 0 0 0-54.14.04V285.41c0-.56-.02-.98-.06-1.27.05-.04.1-.06.16-.07Z"/><path fill="#5E8000" d="m319.14 284.13 28.82.01c.04.29.06.7.06 1.27v100.47h-28.45c-.13 0-.22.05-.27.15-.18-.04-.27-.12-.27-.26V284.45c0-.17.04-.28.11-.32Zm83.18 0h28.93c.07.13.1.3.1.54V385.6c0 .18-.07.3-.21.37a2.19 2.19 0 0 0-.69-.11h-27.44c-.23 0-.46.02-.68.06l-.17-.1h.1c.05 0 .1-.06.1-.11.01-33.6.02-67.2.01-100.79 0-.35-.02-.62-.05-.8Z"/><path fill="#88AB00" d="m348.02 385.88 26.96 31.97c.13.15.1.18-.06.08l-55.62-31.9c.05-.1.14-.15.27-.15h28.45Zm83.12.1-55.71 31.97c-.15.08-.17.06-.06-.07l26.96-31.95c.22-.04.45-.06.68-.06h27.44c.24 0 .47.04.69.1Z"/></g><g fill="#F3FFD4" transform="translate(125.66 659.31)"><polygon points="31.78 46.69 43.4 46.69 43.4 0 31.29 0 31.29 26.88 12.39 0 0 0 0 46.69 12.04 46.69 12.04 18.48"/><polygon points="80.8 46.69 115.03 46.69 115.03 36.54 92.84 36.54 92.84 28.14 114.54 28.14 114.54 17.92 92.84 17.92 92.84 10.15 115.03 10.15 115.03 0 80.8 0"/><path d="M151.03 46.69h12.04V30.87h11.34c10.5 0 16.24-6.93 16.24-15.33 0-8.47-5.74-15.54-16.24-15.54h-23.38v46.69Zm27.37-31.22c0 3.15-2.38 5.18-5.6 5.18h-9.73v-10.5h9.73c3.22 0 5.6 2.1 5.6 5.32Z"/><polygon points="256.47 46.69 268.51 46.69 268.51 0 256.47 0 256.47 17.43 237.08 17.43 237.08 0 225.04 0 225.04 46.69 237.08 46.69 237.08 27.93 256.47 27.93"/><path d="M331.95 46.69h13.79l-9.52-17.15c4.34-1.54 9.31-5.88 9.31-14 0-8.68-5.88-15.54-16.24-15.54h-23.38v46.69h12.04V30.87h6.16l7.84 15.82Zm1.33-31.29c0 3.22-2.66 5.25-5.81 5.25h-9.52v-10.5h9.52c3.15 0 5.81 2.03 5.81 5.25Z"/><polygon points="381.18 46.69 393.22 46.69 393.22 0 381.18 0"/><polygon points="441.05 46.69 453.09 46.69 453.09 10.5 466.11 10.5 466.11 0 427.96 0 427.96 10.5 441.05 10.5"/><polygon points="500.85 46.69 535.08 46.69 535.08 36.54 512.89 36.54 512.89 28.14 534.59 28.14 534.59 17.92 512.89 17.92 512.89 10.15 535.08 10.15 535.08 0 500.85 0"/></g></g></svg>
